# xmcd
#
# Track frame offsets:
#	150
#	15874
#	27517
#	41019
#	54939
#	69626
#	84555
#	99823
#	113531
#	127897
#	141995
#	157542
#	175304
#	190507
#	205619
#	222677
#	236232
#	250125
#
# Disc length: 3526 seconds
#
# Revision: 1
# Processed by: cddbd v1.5.2PL0 Copyright (c) Steve Scherf et al.
# Submitted via: audiograbber 1.82.02
#
DISCID=e50dc412
DTITLE=Various Artist  - Country Radio - June 2019
DYEAR=2019
DGENRE=Country
TTITLE0=Caroline Jones - Chasin' Me
TTITLE1=Lil' Nas X (Ft. Billy Ray Cyrus) - Old Town Road (Rmx)
TTITLE2=Chance McKinney - Backyard
TTITLE3=Maddie and Tae - Die From A Broken Heart
TTITLE4=Noe Palma - This Summer
TTITLE5=Luke Bryan - Knockin' Boots
TTITLE6=High Valley - Single Man
TTITLE7=Lanco - Rival
TTITLE8=Jordan Davis - Slow Dance In A Parking Lot
TTITLE9=Abby Anderson - Good Lord
TTITLE10=Caylee Hammack - Family Tree (PO Clean Edit)
TTITLE11=Brooks and Dunn (Ft. Brett Young) - Ain't Nothing 'Bout You
TTITLE12=Blake Shelton - God's Country
TTITLE13=Tucker Beathard - Better Than Me
TTITLE14=Tenille Arts - Call You Names
TTITLE15=Brandon Ratcliff - Rules Of Breaking Up
TTITLE16=Adam Craig - If You're Lucky
TTITLE17=LoCash - One Big Country Song (Clean Edit)
EXTD=
EXTT0=
EXTT1=
EXTT2=
EXTT3=
EXTT4=
EXTT5=
EXTT6=
EXTT7=
EXTT8=
EXTT9=
EXTT10=
EXTT11=
EXTT12=
EXTT13=
EXTT14=
EXTT15=
EXTT16=
EXTT17=
PLAYORDER=
